<!-- Generated by IcoMoon.io -->
<svg version="1.1" xmlns="http://www.w3.org/2000/svg" width="1024" height="1024" viewBox="0 0 1024 1024" id="icomoon-ignore">
<title></title>
<g id="icomoon-ignore">
</g>
<path id="icomoon-ignore" d="M-0.016 384c0 212.064 171.936 384 384 384 64.832 0 125.856-16.224 179.456-44.64l266.944 267.008 0.192-0.224c20.512 20.864 48.928 33.856 80.512 33.856 62.368 0 112.928-50.56 112.928-112.928 0-31.52-12.992-59.968-33.888-80.48l-0.064 0.064-266.88-266.912c28.512-53.632 44.8-114.752 44.8-179.744 0-212.064-171.936-384-384-384s-384 171.936-384 384zM950.128 870.56c10.688 10.304 17.376 24.576 17.376 40.512 0 31.2-25.248 56.48-56.448 56.48-15.936 0-30.176-6.72-40.512-17.376l-0.256 0.288-258.112-258.112c30.432-22.56 57.312-49.44 79.936-79.808l258.016 258.016zM704.016 384c0 176.704-143.328 320-320 320-176.704 0-320-143.296-320-320 0-176.672 143.296-320 320-320 176.672 0 320 143.328 320 320zM159.984 384c0-8.8 7.168-16 16-16s16 7.2 16 16c0 106.048 85.984 192 192 192 8.832 0 16 7.168 16 16s-7.168 16-16 16c-123.712 0-224-100.256-224-224z"></path>
</svg>
